# xmcd
#
# Track frame offsets:
#	150
#	12982
#	23147
#	36707
#	49985
#	60742
#	73725
#	87102
#	97687
#	111345
#	123860
#	134765
#	150837
#	165792
#	182290
#	193162
#	205082
#	220560
#	231977
#	240352
#	249800
#	261305
#	271682
#	284112
#	296515
#	308422
#	319432
#	331427
#	343165
#
# Disc length: 4760 seconds
#
# Revision: 1
# Processed by: cddbd v1.4PL0 Copyright (c) Steve Scherf et al.
# Submitted via: MusicWizard 6.0.2
#
DISCID=9f12961d
DTITLE=Dean Martin - Everybody Loves Somebody   Vol. 1
DYEAR=1900
DGENRE=Vocal
TTITLE0=Senza Fine
TTITLE1=Dame Su Amor
TTITLE2=Baby-O
TTITLE3=Just Close Your Eyes
TTITLE4=Tik-A-Tee, Tik-A-Tay
TTITLE5=C'est Si Bon
TTITLE6=The Poor People Of Paris
TTITLE7=The River Seine
TTITLE8=I Love Paris
TTITLE9=The Last Time I Saw Paris
TTITLE10=Mimi
TTITLE11=April In Paris
TTITLE12=Darling, Je Vous Aime Beaucoup
TTITLE13=Gigi
TTITLE14=La Vie En Rose
TTITLE15=C'est Magnifique
TTITLE16=Mam'selle
TTITLE17=Manana
TTITLE18=South Of The Border
TTITLE19=Tangerine
TTITLE20=In A Little Spanish Town
TTITLE21=(Alla En) El Rancho Grande
TTITLE22=What A Difference A Day Made
TTITLE23=Always In My Heart
TTITLE24=Magic Is The Moonlight
TTITLE25=Besame Mucho
TTITLE26=From The Bottom Of My Heart (Dammi, Dammi, Dammi)
TTITLE27=Who's Got The Action?
TTITLE28=La Paloma
EXTD=
EXTT0=
EXTT1=
EXTT2=
EXTT3=
EXTT4=
EXTT5=
EXTT6=
EXTT7=
EXTT8=
EXTT9=
EXTT10=
EXTT11=
EXTT12=
EXTT13=
EXTT14=
EXTT15=
EXTT16=
EXTT17=
EXTT18=
EXTT19=
EXTT20=
EXTT21=
EXTT22=
EXTT23=
EXTT24=
EXTT25=
EXTT26=
EXTT27=
EXTT28=
PLAYORDER=
